<svg width="24" height="20" fill="none" xmlns="http://www.w3.org/2000/svg"><path d="M23.63.548C23.335.194 22.896 0 22.392 0c-.274 0-.565.057-.863.17L1.214 7.807C.136 8.213-.009 8.82 0 9.148c.01.326.19.925 1.29 1.27l.02.006 4.213 1.187 2.28 6.419c.31.875 1.007 1.419 1.82 1.419.512 0 1.015-.212 1.456-.611l2.607-2.364 3.78 2.998.002.001.036.029a.686.686 0 01.01.007c.42.321.879.49 1.327.491.875 0 1.572-.638 1.775-1.626l3.329-16.189c.134-.65.022-1.231-.316-1.637zM6.932 11.386l8.13-4.091L10 12.593a.689.689 0 00-.171.309l-.976 3.894-1.921-5.41zm3.194 6.433c-.034.03-.068.057-.102.082l.906-3.612 1.647 1.306-2.451 2.224zm12.44-15.91L19.238 18.1c-.032.155-.134.516-.397.516-.13 0-.294-.07-.46-.197l-4.285-3.397a.01.01 0 00-.002-.002l-2.549-2.021 7.32-7.662a.685.685 0 00.051-.89.71.71 0 00-.882-.202l-12.04 6.059L1.722 9.1l20.31-7.636a1.05 1.05 0 01.36-.078c.044 0 .12.005.149.04.037.045.085.198.026.485z" fill="#E6BC5E"/><path d="M23.63.548C23.335.194 22.896 0 22.392 0c-.274 0-.565.057-.863.17L1.214 7.807C.136 8.213-.009 8.82 0 9.148c.01.326.19.925 1.29 1.27l.02.006 4.213 1.187 2.28 6.419c.31.875 1.007 1.419 1.82 1.419.512 0 1.015-.212 1.456-.611l2.607-2.364 3.78 2.998.002.001.036.029a.686.686 0 01.01.007c.42.321.879.49 1.327.491.875 0 1.572-.638 1.775-1.626l3.329-16.189c.134-.65.022-1.231-.316-1.637zM6.932 11.386l8.13-4.091L10 12.593a.689.689 0 00-.171.309l-.976 3.894-1.921-5.41zm3.194 6.433c-.034.03-.068.057-.102.082l.906-3.612 1.647 1.306-2.451 2.224zm12.44-15.91L19.238 18.1c-.032.155-.134.516-.397.516-.13 0-.294-.07-.46-.197l-4.285-3.397a.01.01 0 00-.002-.002l-2.549-2.021 7.32-7.662a.685.685 0 00.051-.89.71.71 0 00-.882-.202l-12.04 6.059L1.722 9.1l20.31-7.636a1.05 1.05 0 01.36-.078c.044 0 .12.005.149.04.037.045.085.198.026.485z" fill="#039BE5" fill-opacity=".8"/></svg>