<svg width="32" height="38" fill="none" xmlns="http://www.w3.org/2000/svg"><path fill-rule="evenodd" clip-rule="evenodd" d="M15.632 33.471a11.418 11.418 0 01-4.44-21.978l.63 1.508a9.871 9.871 0 107.62 0l.63-1.507a11.415 11.415 0 01-4.44 21.977zM20.562 4.9h-4.93V3.268h3.29V1.635h-6.58v1.633h1.64V4.9h-3.29V0h9.87v4.9zm-4.93 32.657a15.5 15.5 0 01-2.47-30.822V5.72h1.64v2.46l-.73.08a13.985 13.985 0 103.11 0l-.73-.08V5.72h1.65v1.015a15.5 15.5 0 01-2.47 30.822zm0-12.244a3.266 3.266 0 113.29-3.266 3.278 3.278 0 01-3.29 3.262v.004zm0-4.9a1.633 1.633 0 101.64 1.633 1.644 1.644 0 00-1.64-1.636v.003zm.82-.816h-1.65v-8.98h1.65v8.98zm0 7.347h-1.65v-2.45h1.65v2.45zm11.76-17.387l-2.47-2.449 1.17-1.154 2.46 2.449-1.16 1.154zm-2.95 1.632l-1.16-1.154 1.64-1.632 1.17 1.154-1.65 1.632zM3.042 9.557l-1.16-1.154 2.47-2.449 1.16 1.154-2.47 2.449zm2.95 1.632l-1.64-1.632 1.16-1.154 1.65 1.632-1.17 1.154z" fill="#CAC63B"/></svg>