<svg width="129" height="77" fill="none" xmlns="http://www.w3.org/2000/svg"><path d="M57.44 75.247H1.628V62.923C8.252 58 13.536 54.019 17.482 50.979c3.945-3.04 7.6-5.99 10.966-8.85 3.366-2.895 5.846-5.32 7.438-7.274 1.629-1.955 2.86-3.837 3.692-5.647.868-1.846 1.303-3.691 1.303-5.537 0-3.077-1.177-5.447-3.53-7.112-2.352-1.702-5.175-2.552-8.468-2.552-7.854 0-14.496 2.841-19.925 8.524L0 12.107c3.475-4.018 7.745-7.04 12.813-9.067A42.018 42.018 0 0128.556 0c5.284 0 10.062.941 14.332 2.823 4.271 1.846 7.673 4.597 10.207 8.252 2.534 3.62 3.8 7.818 3.8 12.596 0 6.044-2.407 11.98-7.22 17.807-4.778 5.827-12.27 12.45-22.477 19.87h30.24v13.899z" fill="url(#paint0_linear)"/><path d="M97.56 76.604c-5.103 0-9.664-1.086-13.681-3.258-4.018-2.207-7.239-5.14-9.664-8.795-2.425-3.691-4.253-7.763-5.483-12.215-1.23-4.488-1.846-9.193-1.846-14.115 0-4.923.615-9.61 1.846-14.062 1.23-4.452 3.058-8.505 5.483-12.16 2.425-3.656 5.646-6.57 9.664-8.742C87.896 1.086 92.457 0 97.559 0c5.104 0 9.647 1.086 13.628 3.257 4.017 2.172 7.239 5.086 9.664 8.741 2.425 3.656 4.252 7.71 5.483 12.161 1.267 4.452 1.9 9.14 1.9 14.062 0 3.908-.38 7.69-1.14 11.346a41.91 41.91 0 01-3.638 10.424c-1.628 3.294-3.619 6.171-5.971 8.632-2.353 2.425-5.249 4.361-8.687 5.81-3.402 1.447-7.148 2.17-11.238 2.17zm0-14.007c3.402 0 6.207-1.104 8.415-3.312 2.244-2.208 3.818-5.067 4.723-8.578.941-3.547 1.412-7.709 1.412-12.486 0-3.547-.272-6.732-.815-9.556-.542-2.859-1.375-5.41-2.497-7.655-1.086-2.244-2.588-3.963-4.506-5.157-1.918-1.23-4.162-1.846-6.732-1.846-2.606 0-4.868.615-6.786 1.846-1.919 1.194-3.439 2.913-4.56 5.157-1.123 2.244-1.955 4.796-2.498 7.655-.543 2.823-.814 6.008-.814 9.556 0 3.547.271 6.75.814 9.609.543 2.86 1.375 5.429 2.497 7.71 1.122 2.243 2.642 3.98 4.56 5.211 1.919 1.23 4.181 1.846 6.787 1.846z" fill="url(#paint1_linear)"/><defs><linearGradient id="paint0_linear" x1="64.364" y1="-13.549" x2="64.364" y2="97.638" gradientUnits="userSpaceOnUse"><stop stop-color="#EFEA3F"/><stop offset="1" stop-color="#C8BC41" stop-opacity="0"/></linearGradient><linearGradient id="paint1_linear" x1="64.364" y1="-13.549" x2="64.364" y2="97.638" gradientUnits="userSpaceOnUse"><stop stop-color="#EFEA3F"/><stop offset="1" stop-color="#C8BC41" stop-opacity="0"/></linearGradient></defs></svg>