<svg width="53" height="49" fill="none" xmlns="http://www.w3.org/2000/svg"><path d="M53 7.09l-.001-.018a.736.736 0 00-.005-.069c0-.008-.002-.016-.004-.025a.72.72 0 00-.038-.15l-.004-.011-2.106-5.392a1.398 1.398 0 00-1.31-.894h-3.834a.757.757 0 000 1.514h3.76l1.677 4.29H35.289l-.992-4.29h5.852a.757.757 0 100-1.514H9.53c-.583 0-1.097.351-1.31.895l-2.105 5.39-.004.013a.741.741 0 00-.039.15l-.004.024a.784.784 0 00-.004.069l-.001.017v11.122a.757.757 0 101.513 0V7.848H23.62v11.503a1.147 1.147 0 001.904.857l4.009-3.55 4.008 3.55a1.147 1.147 0 001.904-.857V7.85h16.042v33.945a.986.986 0 01-.985.985H36.625l-.001-.026a2.731 2.731 0 00-.01-.203 2.727 2.727 0 003.218-1.605 2.705 2.705 0 00-.098-2.269l-.017-.033a2.763 2.763 0 00-.097-.168l-.02-.032a2.722 2.722 0 00-.113-.164l-.003-.003a2.673 2.673 0 00-.124-.153l-.024-.027a2.667 2.667 0 00-.133-.138l-.027-.025a2.676 2.676 0 00-.149-.131l-.005-.004c-.05-.04-.103-.08-.157-.116l-.029-.02a2.685 2.685 0 00-.164-.103l-.014-.008c.32-.277.572-.628.737-1.03a2.705 2.705 0 00-.012-2.085 2.703 2.703 0 00-1.482-1.465l-11.778-4.803 5.483-1.697a2.486 2.486 0 001.637-3.101 2.43 2.43 0 00-.83-1.2 2.548 2.548 0 00-2.09-.49l-.012.003c-.041.009-4.245.954-8.634 1.81l-.572.11a38.233 38.233 0 01-.567.108 179.671 179.671 0 01-1.031.194c-5.513 1.016-7.062 1.034-7.492.976l-.005-.001-.018-.003-.013-.002a.58.58 0 01-.073-.016l-.123-.05.154-.38a1.497 1.497 0 00-.148-1.415 1.496 1.496 0 00-.678-.549l-4.065-1.657a1.497 1.497 0 00-1.153.006 1.496 1.496 0 00-.811.82l-4.97 12.19c-.314.77.057 1.65.826 1.964l4.065 1.658a1.51 1.51 0 001.964-.826l.037-.092.937.382h.002a8.313 8.313 0 013.34 2.492 9.834 9.834 0 003.948 2.947l1.055.43H8.562a.986.986 0 01-.985-.985V39.88a.757.757 0 10-1.513 0v1.915a2.501 2.501 0 002.498 2.498h11.436l9.75 3.976a2.728 2.728 0 003.735-2.813 2.812 2.812 0 001.509-.2 2.7 2.7 0 001.17-.963h14.34A2.501 2.501 0 0053 41.794V7.089zM26.32 2.044h6.423l.993 4.29h-8.408l.993-4.29zm-2.546 4.29H7.93l1.676-4.29h15.162l-.993 4.29zm10.157 12.199l-3.64-3.225a1.142 1.142 0 00-1.518 0l-3.64 3.225V7.849h8.798v10.685zM5.568 36.04l-4.052-1.65L6.48 22.212l4.052 1.652-4.965 12.177zm30.235 4.568l-.869-.355h-.002l-9.046-3.69a.757.757 0 00-.571 1.403l9.046 3.688c.037.015.074.033.11.051l.028.017.073.044.033.024.062.046.034.03.052.048.033.036.045.05.03.04a.64.64 0 01.039.052c.01.014.019.03.028.045l.032.052c.009.016.016.033.024.05.01.017.018.035.026.053.008.017.014.035.02.053a.503.503 0 01.021.054l.016.055.015.055.01.057.01.056.005.058c.001.019.004.038.004.057v.057l-.001.06-.006.056c-.002.02-.004.04-.008.06-.002.019-.007.037-.011.055l-.013.061-.017.054-.02.06a1.392 1.392 0 00-.019.042l-.003.01c-.118.273-.337.49-.621.613-.314.135-.673.14-.986.012l-1.603-.653-.022-.008c-.008-.004-.015-.008-.022-.01l-7.358-3a.757.757 0 10-.571 1.401l7.357 3 .024.009.021.01a1.21 1.21 0 01-.913 2.24l-9.885-4.032h-.002l-4.629-1.888a8.31 8.31 0 01-3.34-2.492 9.803 9.803 0 00-3.948-2.946l-.94-.383 1.87-4.584 1.766-4.332.13.053c.123.05.298.121.77.139.587.026 1.56-.035 3.303-.281a110.6 110.6 0 004.339-.722l.125-.023.24-.045.19-.035a127.187 127.187 0 00.452-.085l.19-.037.292-.055.152-.03.457-.088c4.375-.85 8.598-1.798 8.787-1.84l.057-.01c.486-.071.962.21 1.102.663a.968.968 0 01-.639 1.21l-7.503 2.323a.757.757 0 00-.062 1.424l13.737 5.601c.3.122.533.353.659.651a1.2 1.2 0 01.005.926 1.201 1.201 0 01-1.114.753h-.006c-.037 0-.074-.002-.11-.005l-.033-.005c-.028-.003-.056-.006-.084-.012-.018-.003-.035-.008-.053-.012l-.062-.016c-.022-.006-.043-.014-.064-.022-.017-.006-.034-.01-.05-.018l-9.047-3.689a.757.757 0 10-.572 1.402l10.968 4.472a1.2 1.2 0 01.658.651 1.2 1.2 0 01-.327 1.386l-.02.018a1.213 1.213 0 01-1.224.185l-1.051-.428z" fill="#CAC63B"/></svg>