<svg width="20" height="20" fill="none" xmlns="http://www.w3.org/2000/svg"><path d="M17.198 2.888C15.263.963 12.791 0 10.104 0 4.622 0 .107 4.385.107 9.947c0 1.71.43 3.529 1.29 5.026L0 20l5.267-1.283c1.397.855 3.117 1.176 4.73 1.176 5.481 0 9.996-4.385 9.996-9.946.107-2.567-.968-5.134-2.795-7.06zm-7.094 15.4a8.65 8.65 0 01-4.3-1.176l-.215-.214-3.224.856.86-2.995-.215-.213c-.753-1.39-1.183-2.888-1.183-4.492C1.72 5.56 5.482 1.71 10.104 1.71c2.257 0 4.3.856 5.912 2.46 1.504 1.497 2.472 3.636 2.472 5.882 0 4.492-3.762 8.236-8.384 8.236zm4.622-6.202l-1.72-.856c-.215-.107-.43-.107-.537.107-.215.214-.645.856-.86.963-.215.213-.215.213-.538.106-.322-.107-.967-.427-2.042-1.283-.752-.642-1.29-1.497-1.397-1.711-.215-.214 0-.428.107-.535l.43-.428c.108-.107.215-.214.215-.32.107-.215.107-.215 0-.428 0-.214-.537-1.39-.752-1.926-.215-.427-.43-.427-.538-.427h-.43c-.215 0-.537.107-.752.32-.215.214-.86.856-.86 2.14 0 1.283.967 2.46.967 2.566.108.214 1.72 2.674 4.3 3.744.537.214 1.075.428 1.397.534.538.214 1.183.214 1.505.107.43-.107 1.505-.641 1.72-1.176.215-.535.215-1.07.215-1.177-.108-.107-.323-.213-.43-.32z" fill="#CAC63B" fill-opacity=".8"/></svg>