<svg width="129" height="77" viewBox="0 0 129 77" fill="none" xmlns="http://www.w3.org/2000/svg">
<path d="M57.4393 75.2466H1.62871V62.9226C8.25215 58.0003 13.5364 54.019 17.4815 50.9787C21.4266 47.9385 25.0822 44.9887 28.4482 42.1294C31.8142 39.2339 34.2935 36.8089 35.886 34.8545C37.5147 32.9 38.7453 31.0179 39.5777 29.2083C40.4464 27.3624 40.8807 25.5165 40.8807 23.6706C40.8807 20.5942 39.7044 18.2235 37.3518 16.5586C34.9992 14.8575 32.1761 14.0069 28.8825 14.0069C21.0285 14.0069 14.387 16.8481 8.95792 22.5305L0 12.1068C3.47459 8.08928 7.74544 5.06711 12.8125 3.04027C17.8797 1.01342 23.1277 0 28.5568 0C33.8411 0 38.6186 0.941035 42.8895 2.8231C47.1603 4.66898 50.5625 7.4197 53.0961 11.0753C55.6296 14.6946 56.8964 18.8931 56.8964 23.6706C56.8964 29.715 54.4895 35.6507 49.6758 41.4779C44.8982 47.3051 37.4061 53.9285 27.1995 61.3482H57.4393V75.2466Z" fill="url(#paint0_linear)"/>
<path d="M97.5599 76.6038C92.4566 76.6038 87.8962 75.518 83.8788 73.3464C79.8613 71.1386 76.64 68.2069 74.215 64.5514C71.7901 60.8596 69.9623 56.7878 68.7317 52.336C67.5011 47.848 66.8858 43.1428 66.8858 38.2205C66.8858 33.2981 67.5011 28.6111 68.7317 24.1593C69.9623 19.7074 71.7901 15.6537 74.215 11.9982C76.64 8.34263 79.8613 5.42905 83.8788 3.25743C87.8962 1.08581 92.4566 0 97.5599 0C102.663 0 107.206 1.08581 111.187 3.25743C115.204 5.42905 118.426 8.34263 120.851 11.9982C123.276 15.6537 125.103 19.7074 126.334 24.1593C127.601 28.6111 128.234 33.2981 128.234 38.2205C128.234 42.1294 127.854 45.9116 127.094 49.5672C126.334 53.2227 125.121 56.6973 123.456 59.991C121.828 63.2846 119.837 66.162 117.485 68.6231C115.132 71.0481 112.236 72.9845 108.798 74.4322C105.396 75.88 101.65 76.6038 97.5599 76.6038ZM97.5599 62.5969C100.962 62.5969 103.767 61.493 105.975 59.2852C108.219 57.0774 109.793 54.2181 110.698 50.7073C111.639 47.1603 112.11 42.998 112.11 38.2205C112.11 34.6735 111.838 31.4885 111.295 28.6654C110.753 25.8061 109.92 23.2544 108.798 21.0104C107.712 18.7664 106.21 17.0472 104.292 15.8528C102.374 14.6222 100.13 14.0069 97.5599 14.0069C94.954 14.0069 92.6919 14.6222 90.7736 15.8528C88.8554 17.0472 87.3352 18.7664 86.2132 21.0104C85.0912 23.2544 84.2588 25.8061 83.7159 28.6654C83.173 31.4885 82.9015 34.6735 82.9015 38.2205C82.9015 41.7675 83.173 44.9706 83.7159 47.8299C84.2588 50.6892 85.0912 53.2589 86.2132 55.5391C87.3352 57.7831 88.8554 59.5204 90.7736 60.751C92.6919 61.9816 94.954 62.5969 97.5599 62.5969Z" fill="url(#paint1_linear)"/>
<defs>
<linearGradient id="paint0_linear" x1="64.3644" y1="-13.5485" x2="64.3644" y2="97.6384" gradientUnits="userSpaceOnUse">
<stop stop-color="#EFEA3F"/>
<stop offset="1" stop-color="#C8BC41" stop-opacity="0"/>
</linearGradient>
<linearGradient id="paint1_linear" x1="64.3644" y1="-13.5485" x2="64.3644" y2="97.6384" gradientUnits="userSpaceOnUse">
<stop stop-color="#EFEA3F"/>
<stop offset="1" stop-color="#C8BC41" stop-opacity="0"/>
</linearGradient>
</defs>
</svg>
