<svg width="13" height="10" fill="none" xmlns="http://www.w3.org/2000/svg"><path d="M6.5 2.019L1.864 5.713a.102.102 0 01-.004.024.104.104 0 00-.005.023V9.5c0 .136.052.253.154.352a.505.505 0 00.363.148h3.096V7.007h2.064V10h3.097c.14 0 .26-.05.362-.148a.471.471 0 00.154-.351V5.76a.106.106 0 00-.008-.047L6.5 2.02z" fill="#00B300"/><path d="M12.91 4.871l-1.765-1.418V.273a.238.238 0 00-.073-.18.255.255 0 00-.185-.07H9.338a.256.256 0 00-.185.07.239.239 0 00-.073.18v1.52L7.113.203A.962.962 0 006.5 0a.962.962 0 00-.613.203L.09 4.87a.224.224 0 00-.09.17.247.247 0 00.057.183l.5.577c.043.047.1.075.17.086A.307.307 0 00.92 5.83L6.5 1.333l5.58 4.497c.043.036.1.055.17.055h.024a.278.278 0 00.169-.086l.5-.577a.246.246 0 00.056-.183.225.225 0 00-.089-.168z" fill="#00B300"/></svg>