<svg width="35" height="35" fill="none" xmlns="http://www.w3.org/2000/svg"><path d="M16.635 13.02c.12.072.276.12.42.108a.723.723 0 00.445-.108.329.329 0 00.168-.3v-2.523c0-.108-.072-.192-.168-.24a.91.91 0 00-.432-.096.71.71 0 00-.409.096.263.263 0 00-.156.24v2.523a.326.326 0 00.132.3zm-1.789 11.038a1.409 1.409 0 01-.36.228.928.928 0 01-.325.096.303.303 0 01-.24-.072.36.36 0 01-.072-.216v-3.315h-1.153v3.603c-.012.216.06.42.204.589a.79.79 0 00.6.192c.229 0 .457-.048.673-.144a2.3 2.3 0 00.66-.396v.468h1.154l.012-4.312h-1.153v3.279zm-5.417-3.603h1.105v4.576h1.069v-4.576h1.093l.012-.781h-3.28v.78z" fill="#FA141B"/><path d="M17.5 0C7.831 0 0 7.831 0 17.5S7.831 35 17.5 35 35 27.169 35 17.5 27.157 0 17.5 0zm2.522 13.212V8.768h1.033v4.084a.387.387 0 00.072.276c.048.06.132.096.204.084a.602.602 0 00.289-.108c.12-.084.228-.18.312-.288V8.768h1.033v5.309h-1.033v-.589a1.97 1.97 0 01-.6.493c-.205.108-.409.228-.601.228a.66.66 0 01-.529-.288 1.122 1.122 0 01-.18-.709zm-4.708-3.147c-.012-.384.18-.732.492-.949.325-.24.77-.348 1.322-.348a1.91 1.91 0 011.237.372c.312.229.492.577.48.961v2.655c.012.396-.156.78-.468 1.033a2.025 2.025 0 01-1.297.42 1.896 1.896 0 01-1.273-.444 1.293 1.293 0 01-.481-1.045v-2.655h-.012zM12.251 6.57l.841 3.063h.096l.805-3.063h1.321l-1.513 4.48v3.183h-1.31v-3.039L10.93 6.57h1.321zm14.666 17.296c0 1.91-1.61 3.459-3.592 3.459H10.834c-1.982 0-3.591-1.55-3.591-3.46v-2.918c0-1.91 1.61-3.459 3.59-3.459h12.492c1.982 0 3.592 1.55 3.592 3.46v2.918z" fill="#FA141B"/><path d="M20.347 22.052a.92.92 0 00-.289-.744c-.192-.169-.468-.253-.828-.253-.18 0-.36.036-.529.096-.18.072-.336.157-.492.277v-1.742h-1.153v5.417h1.153v-.3c.144.12.312.216.48.276.192.06.396.084.6.084.337 0 .601-.072.77-.228a.797.797 0 00.264-.649l.024-2.234zm-1.166 2.102a.343.343 0 01-.096.276.44.44 0 01-.3.084l-.276-.048a.932.932 0 01-.264-.144v-2.486l.24-.12.24-.036c.12 0 .252.036.348.108a.373.373 0 01.12.3v2.066h-.012zm4.421-.324c0 .24-.037.396-.108.468a.555.555 0 01-.385.108.517.517 0 01-.372-.12.759.759 0 01-.108-.456v-.78h2.114v-1.058a1.055 1.055 0 00-.409-.9c-.276-.205-.672-.313-1.177-.313-.492 0-.9.108-1.213.336-.3.193-.48.529-.468.877v1.862c-.012.36.144.709.432.937.288.228.673.336 1.177.336.553 0 .961-.108 1.25-.324.275-.216.42-.54.42-.961v-.216h-1.141v.204h-.012zm-.817-2.21a.488.488 0 01.384-.108.525.525 0 01.372.108c.085.108.133.24.12.372v.42h-.984v-.432a.4.4 0 01.108-.36z" fill="#FA141B"/></svg>