<svg width="16" height="17" fill="none" xmlns="http://www.w3.org/2000/svg"><path d="M12.164 11.246c-.522-.516-1.175-.516-1.694 0-.397.393-.793.786-1.182 1.185-.107.11-.197.133-.327.06-.256-.14-.529-.253-.775-.406-1.15-.723-2.111-1.651-2.964-2.697-.423-.52-.799-1.075-1.062-1.701-.053-.127-.043-.21.06-.313.396-.383.783-.776 1.172-1.169.543-.546.543-1.185-.003-1.734-.31-.313-.62-.62-.93-.933-.319-.32-.635-.642-.958-.959-.523-.509-1.175-.509-1.695.004-.4.393-.782.795-1.188 1.182-.377.356-.566.792-.606 1.301-.064.83.14 1.612.426 2.374.586 1.579 1.478 2.98 2.56 4.265a15.844 15.844 0 005.248 4.106c.918.446 1.87.789 2.906.845.713.04 1.332-.14 1.828-.696.34-.38.723-.725 1.082-1.088.533-.54.536-1.192.007-1.725-.633-.636-1.269-1.268-1.905-1.901zm-.636-2.654l1.229-.21a5.49 5.49 0 00-1.535-2.963 5.462 5.462 0 00-3.13-1.561L7.92 5.093c.923.13 1.762.546 2.424 1.209a4.236 4.236 0 011.185 2.29zm1.922-5.34A9.06 9.06 0 008.256.662l-.174 1.235a7.855 7.855 0 014.489 2.237 7.848 7.848 0 012.2 4.245L16 8.17a9.126 9.126 0 00-2.55-4.917z" fill="#00B300"/></svg>