<svg width="18" height="17" fill="none" xmlns="http://www.w3.org/2000/svg"><path d="M12.304 13.138L9.438 11.75A.763.763 0 019 11.061v-.983a6.584 6.584 0 001.102-1.964c.423-.188.698-.594.698-1.052V5.898c0-.28-.108-.552-.3-.764V3.587c.017-.16.083-1.112-.628-1.898C9.256 1.007 8.256.662 6.9.662c-1.356 0-2.356.345-2.972 1.027-.71.785-.645 1.738-.628 1.898v1.547a1.14 1.14 0 00-.3.764V7.06c0 .354.166.685.45.905A6.037 6.037 0 004.5 10.07v.963c0 .281-.158.54-.413.675L1.41 13.124A2.613 2.613 0 000 15.43v1.233h13.8v-1.176c0-1.001-.573-1.9-1.496-2.348z" fill="#00B300"/><path d="M16.64 13.47l-2.917-1.226a.584.584 0 01-.211-.224l1.957-.001s.114.01.29.01c.321 0 .79-.035 1.2-.205a.864.864 0 00.5-.555.841.841 0 00-.128-.734c-.56-.772-1.865-2.79-1.906-4.836-.001-.035-.12-3.515-3.663-3.543a4.58 4.58 0 00-1.012.12c.238.61.216 1.154.2 1.331v1.377c.194.268.3.587.3.914v1.164c0 .554-.302 1.068-.782 1.356a6.998 6.998 0 01-1.018 1.81v.833c0 .128.07.24.19.297l2.865 1.39c1.076.521 1.745 1.57 1.745 2.737v1.177H18v-1.076c0-.9-.515-1.707-1.36-2.117z" fill="#00B300"/></svg>