<svg width="25" height="25" fill="none" xmlns="http://www.w3.org/2000/svg"><path d="M13.775 12.64l-2.882-3.138a.641.641 0 010-.9.627.627 0 01.889 0l3.515 3.587a.64.64 0 010 .898l-3.515 3.586a.623.623 0 01-.89 0 .64.64 0 010-.897l2.883-3.136zM12.523.618C19.163.618 24.545 6 24.545 12.64c0 6.64-5.382 12.022-12.022 12.022C5.883 24.662.501 19.28.501 12.64.501 6 5.884.618 12.523.618zm0 22.483c5.777 0 10.462-4.683 10.462-10.461 0-5.778-4.685-10.462-10.462-10.462-5.779 0-10.461 4.684-10.461 10.462C2.06 18.418 6.744 23.1 12.523 23.1z" fill="#00B300"/></svg>