<svg width="18" height="16" fill="none" xmlns="http://www.w3.org/2000/svg"><path d="M11.931 12.477l-2.779-1.39a.765.765 0 01-.425-.688v-.983c.067-.082.137-.174.21-.277.36-.509.649-1.076.859-1.687.41-.188.677-.594.677-1.052V5.236c0-.28-.105-.551-.291-.763V2.925c.016-.16.08-1.112-.609-1.898C8.976.346 8.006 0 6.691 0 5.376 0 4.406.346 3.809 1.027c-.69.786-.625 1.738-.609 1.898v1.547a1.16 1.16 0 00-.29.764V6.4c0 .354.16.684.435.904A6.105 6.105 0 004.364 9.41v.963a.77.77 0 01-.4.675l-2.596 1.415A2.624 2.624 0 000 14.768V16h13.382v-1.176c0-1-.556-1.9-1.45-2.347z" fill="#000" fill-opacity=".4"/><path d="M11.931 12.477l-2.779-1.39a.765.765 0 01-.425-.688v-.983c.067-.082.137-.174.21-.277.36-.509.649-1.076.859-1.687.41-.188.677-.594.677-1.052V5.236c0-.28-.105-.551-.291-.763V2.925c.016-.16.08-1.112-.609-1.898C8.976.346 8.006 0 6.691 0 5.376 0 4.406.346 3.809 1.027c-.69.786-.625 1.738-.609 1.898v1.547a1.16 1.16 0 00-.29.764V6.4c0 .354.16.684.435.904A6.105 6.105 0 004.364 9.41v.963a.77.77 0 01-.4.675l-2.596 1.415A2.624 2.624 0 000 14.768V16h13.382v-1.176c0-1-.556-1.9-1.45-2.347z" fill="#FC9B36"/><path d="M16.136 12.808l-2.829-1.225a.577.577 0 01-.205-.225h1.899s.11.01.28.01c.312 0 .767-.036 1.163-.206a.863.863 0 00.362-1.289c-.543-.772-1.81-2.79-1.849-4.835 0-.036-.115-3.515-3.552-3.544a4.314 4.314 0 00-.98.12c.23.61.209 1.155.193 1.332v1.377c.188.268.29.586.29.913V6.4c0 .555-.291 1.068-.758 1.356a7.07 7.07 0 01-.986 1.811v.832c0 .129.068.24.183.297l2.78 1.39a3.044 3.044 0 011.69 2.737V16h3.637v-1.075c0-.9-.5-1.708-1.318-2.117z" fill="#000" fill-opacity=".4"/><path d="M16.136 12.808l-2.829-1.225a.577.577 0 01-.205-.225h1.899s.11.01.28.01c.312 0 .767-.036 1.163-.206a.863.863 0 00.362-1.289c-.543-.772-1.81-2.79-1.849-4.835 0-.036-.115-3.515-3.552-3.544a4.314 4.314 0 00-.98.12c.23.61.209 1.155.193 1.332v1.377c.188.268.29.586.29.913V6.4c0 .555-.291 1.068-.758 1.356a7.07 7.07 0 01-.986 1.811v.832c0 .129.068.24.183.297l2.78 1.39a3.044 3.044 0 011.69 2.737V16h3.637v-1.075c0-.9-.5-1.708-1.318-2.117z" fill="#FC9B36"/></svg>